{
  "asset": {
    "generator": "glTF-Transform v3.10.0",
    "version": "2.0",
    "extras": {
      "author": "inciprocal (https://sketchfab.com/inciprocal.com)",
      "license": "CC-BY-4.0 (http://creativecommons.org/licenses/by/4.0/)",
      "source": "https://sketchfab.com/3d-models/old-lowa-gore-tex-boot-2021-free-417531d1bfcd4fc39f9cedbc1c85963e",
      "title": "Old Lowa Gore-Tex Boot (2021 / FREE)"
    }
  },
  "accessors": [
    {
      "type": "VEC3",
      "componentType": 5126,
      "count": 23830,
      "max": [
        0.15029099583625793,
        0.05707300081849098,
        0.2188979983329773
      ],
      "min": [
        -0.1483590006828308,
        -0.0534369982779026,
        0.00011600000289035961
      ],
      "bufferView": 0,
      "byteOffset": 0
    },
    {
      "type": "VEC3",
      "componentType": 5126,
      "count": 23830,
      "bufferView": 0,
      "byteOffset": 12
    },
    {
      "type": "VEC4",
      "componentType": 5126,
      "count": 23830,
      "bufferView": 0,
      "byteOffset": 24
    },
    {
      "type": "VEC2",
      "componentType": 5126,
      "count": 23830,
      "bufferView": 0,
      "byteOffset": 40
    },
    {
      "type": "SCALAR",
      "componentType": 5125,
      "count": 59700,
      "bufferView": 1,
      "byteOffset": 0
    }
  ],
  "bufferViews": [
    {
      "buffer": 0,
      "byteOffset": 0,
      "byteLength": 1143840,
      "byteStride": 48,
      "target": 34962
    },
    {
      "buffer": 0,
      "byteOffset": 1143840,
      "byteLength": 238800,
      "target": 34963
    }
  ],
  "samplers": [
    {
      "magFilter": 9729,
      "minFilter": 9987,
      "wrapS": 10497,
      "wrapT": 10497
    }
  ],
  "textures": [
    {
      "source": 0,
      "sampler": 0
    },
    {
      "source": 1,
      "sampler": 0
    },
    {
      "source": 2,
      "sampler": 0
    },
    {
      "source": 4,
      "sampler": 0
    },
    {
      "source": 3,
      "sampler": 0
    }
  ],
  "images": [
    {
      "mimeType": "image/jpeg",
      "uri": "textures/sh_lowaTibetGT_diffuse.jpeg"
    },
    {
      "mimeType": "image/jpeg",
      "uri": "textures/sh_lowaTibetGT_normal.jpeg"
    },
    {
      "mimeType": "image/png",
      "uri": "textures/sh_lowaTibetGT_occlusion.png"
    },
    {
      "mimeType": "image/png",
      "uri": "specular_1.png"
    },
    {
      "mimeType": "image/png",
      "uri": "metallicRoughness_1.png"
    }
  ],
  "buffers": [
    {
      "uri": "scene.bin",
      "byteLength": 1382640
    }
  ],
  "materials": [
    {
      "name": "sh_lowaTibetGT",
      "doubleSided": true,
      "pbrMetallicRoughness": {
        "baseColorFactor": [
          0.9623774085085943,
          0.9623774085085943,
          0.9623774085085943,
          1
        ],
        "metallicFactor": 0,
        "baseColorTexture": {
          "index": 0
        },
        "metallicRoughnessTexture": {
          "index": 3
        }
      },
      "normalTexture": {
        "index": 1
      },
      "occlusionTexture": {
        "index": 2
      },
      "extensions": {
        "KHR_materials_ior": {
          "ior": 1000
        },
        "KHR_materials_specular": {
          "specularColorFactor": [
            0.35,
            0.35,
            0.35
          ],
          "specularTexture": {
            "index": 4
          },
          "specularColorTexture": {
            "index": 4
          }
        }
      }
    }
  ],
  "meshes": [
    {
      "name": "Object_0",
      "primitives": [
        {
          "attributes": {
            "NORMAL": 1,
            "POSITION": 0,
            "TANGENT": 2,
            "TEXCOORD_0": 3
          },
          "mode": 4,
          "material": 0,
          "indices": 4
        }
      ]
    }
  ],
  "nodes": [
    {
      "name": "Sketchfab_model",
      "rotation": [
        -0.6846098394209513,
        -0.1769445330266501,
        -0.17694453302665017,
        0.6846098394209513
      ],
      "children": [
        1
      ]
    },
    {
      "name": "sh_lowaTibetGT.obj.cleaner.materialmerger.gles",
      "children": [
        2
      ]
    },
    {
      "name": "Object_2",
      "mesh": 0
    }
  ],
  "scenes": [
    {
      "name": "Sketchfab_Scene",
      "nodes": [
        0
      ]
    }
  ],
  "scene": 0,
  "extensionsUsed": [
    "KHR_materials_ior",
    "KHR_materials_specular"
  ]
}